<svg id="Layer_1" data-name="Layer 1" xmlns="http://www.w3.org/2000/svg" viewBox="0 0 30 21.09"><defs><style>.cls-1{fill:#1e4d77;}</style></defs><path class="cls-1" d="M972.8,885.08H948.07a2.64,2.64,0,0,0-2.64,2.64v15.82a2.64,2.64,0,0,0,2.64,2.63H972.8a2.63,2.63,0,0,0,2.63-2.63V887.72a2.64,2.64,0,0,0-2.63-2.64m-.37,1.76L962.3,896.91a2.62,2.62,0,0,1-3.73,0l-10.13-10.07Zm-25.24,16.34v-15.1l7.6,7.55Zm1.25,1.24,7.59-7.55,1.29,1.29a4.39,4.39,0,0,0,6.22,0l1.29-1.29,7.59,7.55Zm25.23-1.24-7.59-7.55,7.59-7.55Z" transform="translate(-945.43 -885.08)"/></svg>