<svg id="Layer_1" data-name="Layer 1" xmlns="http://www.w3.org/2000/svg" viewBox="0 0 29.71 29.71"><defs><style>.cls-1{fill:#fff;}</style></defs><path class="cls-1" d="M967.25,1080.08H953.62a8.06,8.06,0,0,0-8,8.05v13.62a8.06,8.06,0,0,0,8,8h13.63a8.06,8.06,0,0,0,8-8v-13.62A8.06,8.06,0,0,0,967.25,1080.08Zm-6.82,23a8.13,8.13,0,1,1,8.13-8.13A8.13,8.13,0,0,1,960.43,1103.07Zm8.32-14.34a2.4,2.4,0,1,1,2.4-2.4A2.41,2.41,0,0,1,968.75,1088.73Z" transform="translate(-945.57 -1080.08)"/><path class="cls-1" d="M960.43,1088.56a6.38,6.38,0,1,0,6.38,6.38A6.38,6.38,0,0,0,960.43,1088.56Z" transform="translate(-945.57 -1080.08)"/><path class="cls-1" d="M968.75,1085.67a.66.66,0,1,0,.66.66A.67.67,0,0,0,968.75,1085.67Z" transform="translate(-945.57 -1080.08)"/></svg>