<svg id="Layer_1" data-name="Layer 1" xmlns="http://www.w3.org/2000/svg" viewBox="0 0 30 30"><defs><style>.cls-1{fill:#1e4d77;}</style></defs><path class="cls-1" d="M972.31,898.83a16.21,16.21,0,0,1-3.08-.64,3.53,3.53,0,0,0-3.53.87L963.78,901a22.13,22.13,0,0,1-8.74-8.74l1.92-1.92a3.53,3.53,0,0,0,.87-3.53,17,17,0,0,1-.64-3.08,3.52,3.52,0,0,0-3.5-3.12H949a3.52,3.52,0,0,0-3.53,3.53c0,.11,0,.22,0,.33a28.93,28.93,0,0,0,26.13,26.13,3.53,3.53,0,0,0,3.85-3.51v-4.74a3.52,3.52,0,0,0-3.12-3.5" transform="translate(-945.43 -880.59)"/></svg>