<svg id="Layer_1" data-name="Layer 1" xmlns="http://www.w3.org/2000/svg" viewBox="0 0 30.18 28.79"><defs><style>.cls-1{fill:#1e4d77;}</style></defs><path class="cls-1" d="M967.13,897.81l-.43-.43a1.71,1.71,0,0,0-2.32-.06c-.43.37-.82.79-1.21,1.2l0,0h0l-.12,0h-.4l-.1,0-.14,0-.38-.11-.16-.06-.06,0,0,0a7.58,7.58,0,0,1-.74-.4,8.3,8.3,0,0,1-.73-.49,11.5,11.5,0,0,1-1.49-1.47,7.11,7.11,0,0,1-.91-1.46l-.05-.1,0-.11c0-.11-.08-.23-.11-.34s0-.22-.07-.33h0c0-.07,0-.13,0-.19s0-.16,0-.24h0l0-.11v0l0,0s0,0,0,0h0l.59-.6c.18-.18.38-.36.56-.55a1.71,1.71,0,0,0,.05-2.32c-.39-.45-.84-.85-1.27-1.28-.15-.15-.3-.32-.47-.47a1.71,1.71,0,0,0-2.13-.21,11,11,0,0,0-1.43,1.38,4.75,4.75,0,0,0-1.18,1.59,4.91,4.91,0,0,0,0,2.79,10.79,10.79,0,0,0,1.38,3.17,18.37,18.37,0,0,0,5.88,5.92,11.41,11.41,0,0,0,3.15,1.4,4.92,4.92,0,0,0,2.82,0,3.39,3.39,0,0,0,1.19-.72.75.75,0,0,0,.07-.12l1.16-1.15c.15-.15.31-.3.46-.47a1.72,1.72,0,0,0-.06-2.32C968,898.63,967.55,898.23,967.13,897.81Zm-4.17.8h0Zm-5.4-5c0-.06,0-.18,0,0Z" transform="translate(-945.41 -881.25)"/><path class="cls-1" d="M967.4,882.66a14.34,14.34,0,0,0-7.87-1.31,14.68,14.68,0,0,0-7.41,3.12,14.49,14.49,0,0,0-4.74,15.22,14,14,0,0,0,.71,1.86l-2.22,4.25-.35.67a1,1,0,0,0,1.07,1.39l5-1.27.22-.05a14.6,14.6,0,0,0,8.13,3.44,14.32,14.32,0,0,0,8-1.64,14.39,14.39,0,0,0-.56-25.68Zm6.22,14.55c0,.06,0,.26,0,.09,0,.18-.05.37-.08.56-.07.35-.15.7-.24,1s-.2.67-.32,1l-.18.47a.14.14,0,0,1,0,.06v0l-.12.26a14,14,0,0,1-1,1.82c-.09.14-.19.28-.29.41l-.14.2-.07.09v0c-.22.28-.46.55-.7.82a14.41,14.41,0,0,1-1.52,1.4l-.08.07a2.31,2.31,0,0,1-.19.14l-.44.3c-.29.2-.58.38-.88.55s-.61.33-.93.47l-.23.1s-.23.1-.08,0l-.51.19a12.71,12.71,0,0,1-2.09.58L963,908h-.09l-.31,0a10,10,0,0,1-1.09.06q-.65,0-1.26,0l-.62-.05h0l-.14,0-.35-.06a12.12,12.12,0,0,1-4.56-1.75c-.33-.21-.65-.43-1-.67l-.11-.1-.23-.19-.48-.42a.86.86,0,0,0-.2-.13h0a.94.94,0,0,0-.28-.1h-.07a1.11,1.11,0,0,0-.26,0h-.09l-3.64.92,1.18-2.27c.17-.31.33-.62.49-.93l.11-.22L950,902a1.36,1.36,0,0,0-.19-1.14,12.53,12.53,0,0,1-1.12-5.18,10.12,10.12,0,0,1,0-1.1c0-.18,0-.35,0-.52v-.1c0-.1,0-.2,0-.3a14.07,14.07,0,0,1,.54-2.1l.17-.48.09-.23c0-.1,0,0,0,0l.07-.15c.14-.31.3-.63.46-.94a14.14,14.14,0,0,1,1.11-1.73l.07-.08.16-.19c.11-.14.23-.28.35-.41s.47-.51.72-.75.53-.48.81-.71l.19-.16.08-.06.43-.31a14.73,14.73,0,0,1,1.8-1l.46-.21h0l.06,0,.27-.11c.33-.12.66-.24,1-.33s.69-.19,1-.26l.54-.1.26,0,.14,0a13.49,13.49,0,0,1,2.2-.07l1,.09.13,0,.25,0,.55.11a13.2,13.2,0,0,1,2,.62l.16.06c-.09,0,.12,0,.15.07l.53.25.92.5q.43.27.87.57l.2.14.13.11.13.1c.08.07.16.12.23.19a12.41,12.41,0,0,1,1.46,1.44l.33.38.15.19.08.11a10,10,0,0,1,.58.86c.19.3.37.62.54.94.07.15.15.29.22.45l.1.22a.61.61,0,0,1,.05.12s.07.15,0,.08l.06.16.09.23.18.52c.11.33.21.67.29,1s.15.7.21,1c0,0,0,.07,0,.11l0,.24c0,.19,0,.38,0,.57a14.09,14.09,0,0,1,0,2.25C973.64,897,973.62,897.12,973.62,897.21Z" transform="translate(-945.41 -881.25)"/></svg>