<svg id="Layer_1" data-name="Layer 1" xmlns="http://www.w3.org/2000/svg" viewBox="0 0 30.18 28.79"><defs><style>.cls-1{fill:#fff;}</style></defs><path class="cls-1" d="M967.13,1097.13c-.14-.15-.28-.3-.43-.44a1.71,1.71,0,0,0-2.32-.06c-.43.38-.82.8-1.21,1.2l0,0h0l-.12,0h-.5l-.14,0-.38-.11-.16-.06-.06,0h0c-.25-.12-.5-.26-.74-.4a8.16,8.16,0,0,1-.73-.5,10.89,10.89,0,0,1-1.49-1.47,7.3,7.3,0,0,1-.46-.64,5.9,5.9,0,0,1-.45-.82l-.05-.09,0-.11c0-.12-.08-.23-.11-.35s0-.22-.07-.32h0c0-.06,0-.12,0-.19s0-.16,0-.24h0l0-.11v0l0,0v0l0,0,.59-.59c.18-.19.38-.36.56-.56a1.71,1.71,0,0,0,.05-2.32c-.39-.45-.84-.85-1.27-1.27-.15-.16-.3-.32-.47-.48a1.71,1.71,0,0,0-2.13-.2,10.89,10.89,0,0,0-1.43,1.37,4.79,4.79,0,0,0-1.18,1.6,4.87,4.87,0,0,0,0,2.78,10.85,10.85,0,0,0,1.38,3.18,18.34,18.34,0,0,0,5.88,5.91,11.12,11.12,0,0,0,3.15,1.4,5,5,0,0,0,2.82,0,3.42,3.42,0,0,0,1.19-.73.67.67,0,0,0,.07-.11l1.16-1.16.46-.46a1.73,1.73,0,0,0-.06-2.33C968,1098,967.55,1097.54,967.13,1097.13Zm-4.17.79h0Zm-5.4-5c0-.06,0-.18,0,0Z" transform="translate(-945.41 -1080.56)"/><path class="cls-1" d="M972.75,1090.11h0S972.74,1090.08,972.75,1090.11Z" transform="translate(-945.41 -1080.56)"/><path class="cls-1" d="M948.8,1093.2v.06S948.8,1093.21,948.8,1093.2Z" transform="translate(-945.41 -1080.56)"/><path class="cls-1" d="M967.4,1082a14.43,14.43,0,0,0-7.87-1.31A14.41,14.41,0,0,0,947.38,1099a13.83,13.83,0,0,0,.71,1.85l-2.22,4.25-.35.68a1,1,0,0,0,1.07,1.38l5-1.27.22-.05a14.6,14.6,0,0,0,8.13,3.44,14.32,14.32,0,0,0,8-1.63,14.4,14.4,0,0,0-.56-25.69Zm6.22,14.55c0,.06,0,.26,0,.09,0,.19-.05.38-.08.56-.07.35-.15.7-.24,1s-.2.68-.32,1l-.18.47a.14.14,0,0,1,0,.06v0l-.12.27a13.3,13.3,0,0,1-1,1.81c-.09.14-.19.28-.29.41l-.14.2a.86.86,0,0,0-.07.1h0c-.22.28-.46.56-.7.82a14.5,14.5,0,0,1-1.52,1.41l-.08.07-.19.13c-.14.11-.29.21-.44.31s-.58.37-.88.54-.61.33-.93.47l-.23.1s-.23.1-.08,0l-.51.2a13.74,13.74,0,0,1-2.09.57l-.51.09h-.09a1.55,1.55,0,0,1-.31,0c-.36,0-.73.06-1.09.07s-.85,0-1.26,0l-.62-.06h0l-.14,0-.35,0a12.31,12.31,0,0,1-4.56-1.76c-.33-.2-.65-.43-1-.67l-.11-.1-.23-.18-.48-.43a1.32,1.32,0,0,0-.2-.12l0,0a.94.94,0,0,0-.28-.1h-.07a1.11,1.11,0,0,0-.26,0h-.09l-3.64.92,1.18-2.27c.17-.31.33-.62.49-.93a2.12,2.12,0,0,0,.11-.21l.07-.14a1.37,1.37,0,0,0-.19-1.14,12.48,12.48,0,0,1-1.12-5.17,10.31,10.31,0,0,1,0-1.11c0-.17,0-.34,0-.52v-.1c0-.1,0-.2,0-.29a14.2,14.2,0,0,1,.54-2.11l.17-.47.09-.24c0-.1,0,0,0,0l.07-.15c.14-.32.3-.64.46-.94a13.41,13.41,0,0,1,1.11-1.73l.07-.08.16-.2c.11-.14.23-.27.35-.41s.47-.5.72-.74.53-.49.81-.72l.19-.15.08-.06.43-.32a16.15,16.15,0,0,1,1.8-1l.46-.21h0l.06,0,.27-.1c.33-.13.66-.24,1-.34s.69-.18,1-.26l.54-.1.26,0c-.17,0,.08,0,.14,0a13.48,13.48,0,0,1,2.2-.06c.35,0,.7,0,1,.09h.13l.25,0,.55.1a14.4,14.4,0,0,1,2,.62l.16.07.15.06.53.26c.31.15.61.32.92.5s.58.36.87.56l.2.15.13.1.13.11.23.18a13.24,13.24,0,0,1,1.46,1.44l.33.38.15.2c-.1-.14.05.06.08.1.21.28.4.57.58.86s.37.62.54.94l.22.45c0,.08.07.15.1.23a.37.37,0,0,1,.05.11l0,.09.06.15.09.23.18.52c.11.33.21.68.29,1s.15.7.21,1.06c0,0,0,.07,0,.1l0,.24c0,.19,0,.38,0,.57a14.09,14.09,0,0,1,0,2.25C973.64,1096.35,973.62,1096.43,973.62,1096.52Z" transform="translate(-945.41 -1080.56)"/></svg>